<?xml version="1.0" encoding="UTF-8"?>
<svg id="Layer_1" xmlns="http://www.w3.org/2000/svg" version="1.1" viewBox="0 0 1582.52 355.56">
  <!-- Generator: Adobe Illustrator 29.8.3, SVG Export Plug-In . SVG Version: 2.1.1 Build 3)  -->
  <defs>
    <style>
      .st0, .st1 {
        fill: #407879;
      }

      .st2 {
        fill: #699f9a;
      }

      .st3 {
        fill: #fff;
      }

      .st1 {
        font-family: RacingSansOne-Regular, 'Racing Sans One';
        font-size: 218.27px;
      }

      .st4 {
        fill: #41767a;
      }
    </style>
  </defs>
  <g>
    <path class="st2" d="M184.13,48.77c32.67-2.4,65.01,6.26,84.6,34.23,5.71,8.16,12.42,18.46,15.13,28.04,2.51,8.73,2.17,18.03-.97,26.56-3.18,8.7-9.34,16.05-14.87,23.42l-22.18,29.83c-3.49,4.72-10.09,13.28-12.68,18.1l-.31.6c41.12-38.1,73.61-85.44,119.71-118.28,24.45-17.42,57.55-33.44,88.32-30.51,16.63,1.58,31.91,18.6,29.75,35.77-.37,2.95-2.99,7.87-5.56,9.47-8.54,5.3-19.1,7.49-28.14,11.95-10.81,5.13-19.51,11.04-29.18,17.81,3.38,2.21,5.43,3.89,8.55,6.49,3.07-1.56,6.2-3,9.38-4.32,21.2-8.77,48.92-7.06,61.93,14.54,1.61,2.66,2.99,6.53,4.16,9.47-1.07-10.68-2.67-15.36,8.73-19.09-17.13-26.15-1.12-39.49,25.21-46.2,16.96-4.32,34.44-4.1,51.79-3.43,1.97-4.84,3.79-17.84,7.91-19.52,20.34-8.34,33.41,10.02,40.85,22.96,14.77,1.29,50.95,7.78,63.33,13.59,5.51,2.6,10.47,6.21,14.64,10.65,8.97,9.48,13.31,20.31,12.99,33.3-10.37,18.11-22.28-.27-31.18-2.86-13.82-4.02-43-6.64-57.38-8.65l-3.54,6.52c15.51,4.96,26.5,13.37,28.44,30.4,10.87-14.76,15.42-34.38,39.13-21.62,6.49,3.49,9.85,7.1,13.84,13.22,3.62,6.94,6.35,15.62,5.73,23.64-3.72,42.19-22.27,85.3-52.44,115.31-23.24,23.24-60.16,33.46-85.11,6.06-14.74-16.19-24.67-39.36-5.88-56.6-12.85-.83-17.79-2.41-28.36-8.97-15.35,10.35-37.3,12.89-52.71.82-1.65-1.29-3.27-2.76-4.85-4.15-20.06,17.45-52.63,10.89-65.6-12.35-1.26,1.41-2.55,2.79-3.87,4.13-9.31,9.36-19.75,11.73-32.28,11.71,11.36,37.98-29.67,55.85-61.2,52.43-20.6-2.23-37.33-17.64-49.41-33.62-7.22,5.11-14.18,11.22-21.82,16.49-21.32,14.7-46.77,30.42-72.17,36.52-14.46,3.47-29.08-.35-40.94-8.62-14.21-9.91-26.14-22.38-29.41-39.99-4.12-22.16,3.59-33.02,15.19-50.11-26.72,8.51-55.19,6.21-77.49-11.26-31.35-24.57-24.45-58.44-2.17-85.65,12.63-15.43,23-23.65,39.11-35.07,31.91-22.61,64.15-38.65,103.3-43.15Z"/>
    <path class="st4" d="M183.3,55.77c16.11-2.29,43.02,1.61,57.86,9.97,17.11,9.39,30.08,30.26,36.71,48.12,6.96,18.74-10.56,37.52-21.2,51.8-13.44,17.99-26.99,35.89-40.65,53.72-9.74,12.55-21.79,26.42-29.44,40.05,15.37-9.89,25.28-19.64,38.39-32.09,13.88-13.17,28.66-26.07,41.78-40.04,14.3-15.22,27.86-32.06,42.42-47.06,28.29-29.05,59.66-56.7,99.16-68.91,15.35-4.74,34.7-8.97,47.85,3.37,5.08,4.76,12.86,19.39,4.61,24.5-6.67,4.13-15.2,6.35-22.42,9.53-15.78,6.95-30.6,16.68-43.31,28.33.59.13,1.17.26,1.75.4,8.51,1.99,13.1,5.16,17.72,12.59,14.63-9.09,35.18-15.95,51.77-8.64,20.74,9.13,23.73,28.92,15.38,48.17,4.72-6.09,12.74-17.74,15.16-25.19.95-2.94-1.41-11.07.79-14.31,3.59-2.84,7.17-3.24,11.64-3.94-.36-3.53-11.03-9.69-10.02-19.52,3.32-32.33,58.96-29.36,81.82-27.83,1.48-5.16,2.55-16.7,5.67-20.58,1.65-2.05,9.08-2.03,11.95-1.59,13.75,2.09,17.8,14.31,24.94,23.99,4,1.23,8.64,1.37,12.81,2.47,19.92,5.26,47.64,5.4,62.86,20.59,5.87,5.86,18.19,25.73,9.96,32.8-11.01,1.3-16.08-8.67-24.04-10.38-19.73-4.25-41.19-6.83-61.2-9.53-2.3,5.72-6.27,13.15-9.27,18.54,24.77.61,39.11,15.79,30.03,40.29,3.17-2.89,12.55-12.85,14.69-16.36,12.11-19.81,22.59-29.09,40.65-6.88,7.43,9.13,7.27,19.87,5.49,31.84-6.29,42.07-39.66,116.33-90.33,122.36-24.99,2.97-54.36-24.37-49.67-49.93.76-4.16,5.24-12.23,10.84-12.2,7.52,1.36,18.86,15.52,24.45,21.06,15.04-8.75,24.07-19.29,34.09-33.24-17.35,9.38-25.61,5.31-40.02-6.08-21.25,14.12-35.43,11.43-55.77-3.02-18.27,15.85-38.84,14.5-54.93-3.15-3.55,2.96-7.58,5.71-11.79,7.61-10.18,4.67-21.82,5.03-32.28,1.01-7.93-3-14.27-9.15-17.5-17-7.3-17.33,2.53-35.83,9.08-51.66-7.95,9.54-15.29,15.48-19.08,27.96.78,2.48,2.89,7.27,3.19,9.57,1.79,13.84-15.56,25.51-27.33,27.15-11.37,1.58-19.01-3.12-27.32-9.32,3.77,4.55,8.68,10.91,11.21,15.98,16.59,33.16-33.57,52.67-58.75,44.44-15.1-4.93-35-22.81-42.29-37-22.25,21.86-69.98,51.13-100.22,57.71-29.86,6.49-69.15-34.8-56.28-65.41,6.66-15.85,17.56-29.47,27.57-43.44-13.32,6.56-28.64,11.7-43.04,13.53-27.86,3.36-65.76-14.17-68.31-45.38-2.5-30.68,23.71-52.92,45.37-70.31,29.98-24.07,67.84-45.04,106.75-49.42Z"/>
    <path class="st3" d="M189.82,61.5c17.43-1.23,39.29,2.34,53.55,12.74,8.79,6.41,17.56,15.71,19.2,26.84,1.11,7.53-.75,15.14-3.86,21.99-6.97,15.36-18.66,29.33-28.74,42.75-10.13,13.49-20.05,27.11-30.55,40.32-12.75,16.04-25.97,31.61-38.1,48.14-3.52,4.8-6.8,10.26-5.6,16.5.44,2.28,1.56,4.44,3.6,5.68,19.3,11.69,98.62-70.33,113.63-86.17,15.37-16.22,29.56-33.53,45.04-49.62,10.82-11.15,22.32-21.62,34.43-31.35,21.05-16.92,43.58-29.37,70.1-35.43,8.03-1.84,29.02-3.19,31.24,7.76-1.48,4.56-6.7,5.86-10.93,7.35-56.31,19.79-102.32,68.99-128.15,121.78-5.56,11.37-17.3,33.64-7.99,45.05,6.46,7.93,21.79.91,27.35-4.87,6.38-6.29,7.7-9.2,8.13-18.12,9.23,1.97,26.14,12.36,19.57,23.94-6.15,9.53-19.7,15.74-30.24,18.78-15.59,4.5-26.61,2.3-40.09-5.35-18.21-10.86-21.87-24.83-18.17-44.66-15.77,15.02-32.62,28.86-50.41,41.42-7.92,5.56-17.15,11.35-25.94,15.51-18.69,8.85-54.29,28.5-69.66,4.23-19.85-31.35,9.93-57.21,26.28-80.51,18.35-26.16,37.39-51.96,55.44-78.32,3.44-5.04,13.53-21.57,13.66-26.56.61-47.64-79.44-3.68-96.4,9.06-18.51,13.07-33.59,29.37-46.7,47.83-10.91,15.37-9.6,29.5,12.86,23.14,10.94-3.1,20.34-7.14,29.09-14.95,9.37-8.36,8.56-12.84,8.87-24.64,3.1-2.3,7.34-1.98,10.21.28,11.58,9.1,6.73,24.95-1.44,34.39-14.39,16.64-38.71,27.04-60.19,30.09-8.99.71-21.47-1.32-28.25-7.61-21.14-19.61-11.53-45.87,4.71-64.64,11.04-12.75,20.27-19.08,32.93-28.98,29.89-23.38,63.08-40.89,101.5-43.79Z"/>
    <path class="st3" d="M591.61,81.36c16.8-.3,19.61,9.83,23.6,23.64,19.66,3.29,39.39,5.69,58.68,11.1,7.15,2.01,15.4,4.39,20.38,10.42,3.29,3.97,7.82,10.13,4.33,15.13-4.3,1.85-11.29-8.23-15.82-9.34-24.47-6.03-48.81-10.86-74.12-10.73-9.05,22.99-22.67,51.49-34.85,73.61-17.32,31.46-6.01,35.61,20.32,15.09,10.46-8.16,20.78-35.47,20.84-49.29,50.62-.72,3.18,49.3,7.29,61.06,3,3.33,7.21.58,9.74-2.01,10.43-10.7,21.68-23.01,30.23-35.23,6.74-9.64,16.89-27.57,29.3-11.37,4.19,25.24-9.17,59.28-21.54,81.66-11.96,22.03-33.34,46.43-57.59,54.56-19.22,6.45-42.77-8.03-41.57-29.17.23-4.11,2.64-9.24,6.75-10.31,3.16,1.36,3.85,9.86,5.52,13.01,14.39,27.02,44.38-11.26,54.09-23.31,16.3-20.23,25.16-44.51,33.28-68.66-4.31,5.12-8.15,11.17-12.77,16.82-10.71,12.64-26.87,30.87-43.54,35.16-16.24,4.18-20.9-6.52-23.02-19.37-9.25,6.73-16.03,12.59-27.29,15.69-18.07,3.94-30.29-3.39-29.76-22.67-9.08,8.63-19.14,18.36-32.07,20.21-15.36,2.21-21.08-7.79-22.7-21.26-12.44,11.08-28.02,21.73-45.77,16.14-15.6-5.94-5.23-23.78-3.63-33.19,1.82-10.72,36.84-56.49,4.42-40.85-18.03,8.7-36.8,30.68-42.87,49.41.9,1.45,3.92,6.13,3.86,7.27-.52,9.3-15.81,15.69-23.52,16.05-17.78.83-19.13-12.24-12.62-25.4,2.1-4.24,4.26-9.1,6.55-13.39,6-11.23,13.52-21.35,18.61-32.98,1.03-2.41.53-11.21.42-14.15,7.96-7.03,20.49.67,25.7,7.77,1,1.36,2.12,4.12,2.82,5.73,15.21-9.79,41.79-23.51,57.98-6.53,15.12,15.85-22.3,51.37-14.57,60.58,11.39,5.31,29.89-18.87,35.23-27.13,8-12.4,13.51-17.06,10.2-32.19,11.38-1.41,20.24.22,25.91,10.93-.24,16.21-9.48,24.87-15.1,39.36-1.65,4.25-4.56,11.59,1.68,13.48,1.98.6,4.71.45,6.36-.73,20.54-14.63,50.53-70.18,56.87-92.95-10.98-.45-22.9-.38-33.68,1.96,2.15,2.4,3.48,3.1,2.74,6.41l-1.1.69c-12.42.42-6.21-12.52-12.1-16.07-.72.19-2.36.81-2.17,1.79,7.97,39.2-42.57,21.62-21.27-1.19,16.39-17.55,53.54-11.89,76.34-12.61,1.07-7.22,3.14-15.6,4.98-22.67Z"/>
    <path class="st2" d="M208.6,92.58c2.13-.27,2.47-.29,4.57.1,1.23,1.17,1.75,1.87,2.01,3.6,2.28,14.69-37.62,63.08-47.88,76.53-2.05-8.78-3.09-11.28-7.28-19.17-7.43-12.37-12.52-18.27-27.17-19.45,20.36-19.87,47.16-37.38,75.74-41.61Z"/>
    <path class="st3" d="M206.09,99.39c.48.09.68.3,1.14.58-3.74,13.31-28.27,44.56-37.22,56.36-2.22-3.94-5.32-7.89-8.02-11.56-5.43-6.9-6.85-8.05-14.06-12.94,19.85-15.72,33.69-25.08,58.16-32.44Z"/>
    <path class="st2" d="M377.04,155.83c1.15,3.92-14.58,28.33-17.3,33.31-2.57,4.74-4.86,9.63-6.86,14.64-3.49,8.74-5.09,16.07-1.31,24.85-23.15-7.46-10.51,3.49-19.8,14.52l-.55.64c-1.02.65-1.1.61-2.24,1.06-1.03-1.36-.77-4.58-.71-6.35.92-26.66,30.49-65.4,48.77-82.68Z"/>
    <path class="st2" d="M560.75,141.5h1.1s.21,1.02.21,1.02c-6.76,14.75-18.27,38.91-28.09,51.12l4.15-9.36c4.89-13.84-.36-20.36-10.03-29.86,9.8-1.32,12.41-3.45,17.39-11.8,6.09.15,9.33.01,15.25-1.12Z"/>
    <path class="st3" d="M548.87,147.67l3.76.38.33.65c-1.39,3.24-7.03,14.38-9.27,16.36-1.84-3.82-2.7-5.09-5.23-8.54,4.96-3.01,6.4-4.75,10.41-8.84Z"/>
    <path class="st2" d="M123.54,143.12c1.45,2.48.75,7.57-.41,10.15-4.53,10.07-14.28,14.99-23.86,19.22l-.57-.76c4.66-7.82,18.13-21.81,24.83-28.61Z"/>
    <path class="st2" d="M607.05,169.75c.08.45.19,1,.11,1.46-2.67,15.31-9.83,28.24-21.35,38.15-.01-1.79,18.88-35.83,21.24-39.61Z"/>
    <path class="st3" d="M593.89,252.4c9.38,7.27,13.2,8.64,24.63,9.53-4.03,4.87-8.81,9.07-13.73,13l-2.79,1.95c-3.77-.37-13.83-14.12-21.07-18.73,5.45-1.58,8.17-2.76,12.96-5.76Z"/>
  </g>
  <g>
    <path class="st0" d="M845.86,129.87h-35.14l-25.97,122.01h-47.15l25.97-122.01h-34.71l3.93-16.59h116.77l-3.71,16.59Z"/>
    <path class="st0" d="M957.83,251.88h-51.08l-3.06-34.71h-40.38l-15.5,34.71h-21.17l64.39-138.6h51.73l15.06,138.6ZM870.52,201.25h31.65l-5.02-59.37-26.63,59.37Z"/>
    <path class="st0" d="M1102.76,129.87h-35.14l-25.97,122.01h-47.15l25.97-122.01h-34.71l3.93-16.59h116.78l-3.71,16.59Z"/>
    <path class="st0" d="M1237,129.87h-35.14l-25.97,122.01h-47.15l25.97-122.01h-34.71l3.93-16.59h116.78l-3.71,16.59Z"/>
    <path class="st0" d="M1324.09,111.1c12.51,0,22.66,1.6,30.45,4.8,7.78,3.2,13.93,8.15,18.44,14.84,2.91,4.51,5.16,9.6,6.77,15.28,1.6,5.67,2.4,12.22,2.4,19.64,0,6.41-.58,12.81-1.75,19.21-1.17,6.4-2.8,12.55-4.91,18.44-2.11,5.89-4.66,11.42-7.64,16.59-2.98,5.17-6.3,9.71-9.93,13.64-6.84,7.42-14.73,12.63-23.68,15.61s-19.97,4.47-33.07,4.47-22.85-1.31-30.56-3.93c-7.71-2.62-13.83-6.84-18.33-12.66-3.2-4.07-5.71-9.24-7.53-15.5-1.82-6.25-2.73-14.11-2.73-23.57,0-16.15,2.87-30.59,8.62-43.33,5.75-12.73,13.93-22.81,24.56-30.23,6.4-4.51,13.53-7.86,21.39-10.04,7.86-2.18,17.03-3.27,27.5-3.27ZM1299.43,238.35c3.35,0,6.51-1.49,9.5-4.47s5.75-6.98,8.29-12c2.54-5.02,4.87-10.73,6.98-17.13,2.11-6.4,3.89-13.02,5.35-19.86,1.45-6.84,2.58-13.64,3.38-20.41.8-6.77,1.2-12.91,1.2-18.44,0-7.56-.76-12.77-2.29-15.61s-3.75-4.26-6.66-4.26c-3.35,0-6.55,1.46-9.6,4.37-3.06,2.91-5.93,6.8-8.62,11.68-2.69,4.88-5.1,10.48-7.2,16.81-2.11,6.33-3.93,12.84-5.46,19.54-1.53,6.69-2.69,13.31-3.49,19.86-.8,6.55-1.2,12.59-1.2,18.12,0,8.29.91,14.01,2.73,17.13,1.82,3.13,4.18,4.69,7.09,4.69Z"/>
    <path class="st0" d="M1486.7,111.1c12.51,0,22.66,1.6,30.45,4.8,7.78,3.2,13.93,8.15,18.44,14.84,2.91,4.51,5.16,9.6,6.77,15.28,1.6,5.67,2.4,12.22,2.4,19.64,0,6.41-.58,12.81-1.75,19.21-1.17,6.4-2.8,12.55-4.91,18.44-2.11,5.89-4.66,11.42-7.64,16.59-2.98,5.17-6.3,9.71-9.93,13.64-6.84,7.42-14.73,12.63-23.68,15.61s-19.97,4.47-33.07,4.47-22.85-1.31-30.56-3.93c-7.71-2.62-13.83-6.84-18.33-12.66-3.2-4.07-5.71-9.24-7.53-15.5-1.82-6.25-2.73-14.11-2.73-23.57,0-16.15,2.87-30.59,8.62-43.33,5.75-12.73,13.93-22.81,24.56-30.23,6.4-4.51,13.53-7.86,21.39-10.04,7.86-2.18,17.03-3.27,27.5-3.27ZM1462.04,238.35c3.35,0,6.51-1.49,9.5-4.47s5.75-6.98,8.29-12c2.54-5.02,4.87-10.73,6.98-17.13,2.11-6.4,3.89-13.02,5.35-19.86,1.45-6.84,2.58-13.64,3.38-20.41.8-6.77,1.2-12.91,1.2-18.44,0-7.56-.76-12.77-2.29-15.61s-3.75-4.26-6.66-4.26c-3.35,0-6.55,1.46-9.6,4.37-3.06,2.91-5.93,6.8-8.62,11.68-2.69,4.88-5.1,10.48-7.2,16.81-2.11,6.33-3.93,12.84-5.46,19.54-1.53,6.69-2.69,13.31-3.49,19.86-.8,6.55-1.2,12.59-1.2,18.12,0,8.29.91,14.01,2.73,17.13,1.82,3.13,4.18,4.69,7.09,4.69Z"/>
  </g>
  <g>
    <path class="st2" d="M221.89-1016.97c32.67-2.4,65.01,6.26,84.6,34.23,5.71,8.16,12.42,18.46,15.13,28.04,2.51,8.73,2.17,18.03-.97,26.56-3.18,8.7-9.34,16.05-14.87,23.42l-22.18,29.83c-3.49,4.72-10.09,13.28-12.68,18.1l-.31.6c41.12-38.1,73.61-85.44,119.71-118.28,24.45-17.42,57.55-33.44,88.32-30.51,16.63,1.58,31.91,18.6,29.75,35.77-.37,2.95-2.99,7.87-5.56,9.47-8.54,5.3-19.1,7.49-28.14,11.95-10.81,5.13-19.51,11.04-29.18,17.81,3.38,2.21,5.43,3.89,8.55,6.49,3.07-1.56,6.2-3,9.38-4.32,21.2-8.77,48.92-7.06,61.93,14.54,1.61,2.66,2.99,6.53,4.16,9.47-1.07-10.68-2.67-15.36,8.73-19.09-17.13-26.15-1.12-39.49,25.21-46.2,16.96-4.32,34.44-4.1,51.79-3.43,1.97-4.84,3.79-17.84,7.91-19.52,20.34-8.34,33.41,10.02,40.85,22.96,14.77,1.29,50.95,7.78,63.33,13.59,5.51,2.6,10.47,6.21,14.64,10.65,8.97,9.48,13.31,20.31,12.99,33.3-10.37,18.11-22.28-.27-31.18-2.86-13.82-4.02-43-6.64-57.38-8.65l-3.54,6.52c15.51,4.96,26.5,13.37,28.44,30.4,10.87-14.76,15.42-34.38,39.13-21.62,6.49,3.49,9.85,7.1,13.84,13.22,3.62,6.94,6.35,15.62,5.73,23.64-3.72,42.19-22.27,85.3-52.44,115.31-23.24,23.24-60.16,33.46-85.11,6.06-14.74-16.19-24.67-39.36-5.88-56.6-12.85-.83-17.79-2.41-28.36-8.97-15.35,10.35-37.3,12.89-52.71.82-1.65-1.29-3.27-2.76-4.85-4.15-20.06,17.45-52.63,10.89-65.6-12.35-1.26,1.41-2.55,2.79-3.87,4.13-9.31,9.36-19.75,11.73-32.28,11.71,11.36,37.98-29.67,55.85-61.2,52.43-20.6-2.23-37.33-17.64-49.41-33.62-7.22,5.11-14.18,11.22-21.82,16.49-21.32,14.7-46.77,30.42-72.17,36.52-14.46,3.47-29.08-.35-40.94-8.62-14.21-9.91-26.14-22.38-29.41-39.99-4.12-22.16,3.59-33.02,15.19-50.11-26.72,8.51-55.19,6.21-77.49-11.26-31.35-24.57-24.45-58.44-2.17-85.65,12.63-15.43,23-23.65,39.11-35.07,31.91-22.61,64.15-38.65,103.3-43.15Z"/>
    <path class="st4" d="M221.06-1009.98c16.11-2.29,43.02,1.61,57.86,9.97,17.11,9.39,30.08,30.26,36.71,48.12,6.96,18.74-10.56,37.52-21.2,51.8-13.44,17.99-26.99,35.89-40.65,53.72-9.74,12.55-21.79,26.42-29.44,40.05,15.37-9.89,25.28-19.64,38.39-32.09,13.88-13.17,28.66-26.07,41.78-40.04,14.3-15.22,27.86-32.06,42.42-47.06,28.29-29.05,59.66-56.7,99.16-68.91,15.35-4.74,34.7-8.97,47.85,3.37,5.08,4.76,12.86,19.39,4.61,24.5-6.67,4.13-15.2,6.35-22.42,9.53-15.78,6.95-30.6,16.68-43.31,28.33.59.13,1.17.26,1.75.4,8.51,1.99,13.1,5.16,17.72,12.59,14.63-9.09,35.18-15.95,51.77-8.64,20.74,9.13,23.73,28.92,15.38,48.17,4.72-6.09,12.74-17.74,15.16-25.19.95-2.94-1.41-11.07.79-14.31,3.59-2.84,7.17-3.24,11.64-3.94-.36-3.53-11.03-9.69-10.02-19.52,3.32-32.33,58.96-29.36,81.82-27.83,1.48-5.16,2.55-16.7,5.67-20.58,1.65-2.05,9.08-2.03,11.95-1.59,13.75,2.09,17.8,14.31,24.94,23.99,4,1.23,8.64,1.37,12.81,2.47,19.92,5.26,47.64,5.4,62.86,20.59,5.87,5.86,18.19,25.73,9.96,32.8-11.01,1.3-16.08-8.67-24.04-10.38-19.73-4.25-41.19-6.83-61.2-9.53-2.3,5.72-6.27,13.15-9.27,18.54,24.77.61,39.11,15.79,30.03,40.29,3.17-2.89,12.55-12.85,14.69-16.36,12.11-19.81,22.59-29.09,40.65-6.88,7.43,9.13,7.27,19.87,5.49,31.84-6.29,42.07-39.66,116.33-90.33,122.36-24.99,2.97-54.36-24.37-49.67-49.93.76-4.16,5.24-12.23,10.84-12.2,7.52,1.36,18.86,15.52,24.45,21.06,15.04-8.75,24.07-19.29,34.09-33.24-17.35,9.38-25.61,5.31-40.02-6.08-21.25,14.12-35.43,11.43-55.77-3.02-18.27,15.85-38.84,14.5-54.93-3.15-3.55,2.96-7.58,5.71-11.79,7.61-10.18,4.67-21.82,5.03-32.28,1.01-7.93-3-14.27-9.15-17.5-17-7.3-17.33,2.53-35.83,9.08-51.66-7.95,9.54-15.29,15.48-19.08,27.96.78,2.48,2.89,7.27,3.19,9.57,1.79,13.84-15.56,25.51-27.33,27.15-11.37,1.58-19.01-3.12-27.32-9.32,3.77,4.55,8.68,10.91,11.21,15.98,16.59,33.16-33.57,52.67-58.75,44.44-15.1-4.93-35-22.81-42.29-37-22.25,21.86-69.98,51.13-100.22,57.71-29.86,6.49-69.15-34.8-56.28-65.41,6.66-15.85,17.56-29.47,27.57-43.44-13.32,6.56-28.64,11.7-43.04,13.53-27.86,3.36-65.76-14.17-68.31-45.38-2.5-30.68,23.71-52.92,45.37-70.31,29.98-24.07,67.84-45.04,106.75-49.42Z"/>
    <path class="st3" d="M227.58-1004.25c17.43-1.23,39.29,2.34,53.55,12.74,8.79,6.41,17.56,15.71,19.2,26.84,1.11,7.53-.75,15.14-3.86,21.99-6.97,15.36-18.66,29.33-28.74,42.75-10.13,13.49-20.05,27.11-30.55,40.32-12.75,16.04-25.97,31.61-38.1,48.14-3.52,4.8-6.8,10.26-5.6,16.5.44,2.28,1.56,4.44,3.6,5.68,19.3,11.69,98.62-70.33,113.63-86.17,15.37-16.22,29.56-33.53,45.04-49.62,10.82-11.15,22.32-21.62,34.43-31.35,21.05-16.92,43.58-29.37,70.1-35.43,8.03-1.84,29.02-3.19,31.24,7.76-1.48,4.56-6.7,5.86-10.93,7.35-56.31,19.79-102.32,68.99-128.15,121.78-5.56,11.37-17.3,33.64-7.99,45.05,6.46,7.93,21.79.91,27.35-4.87,6.38-6.29,7.7-9.2,8.13-18.12,9.23,1.97,26.14,12.36,19.57,23.94-6.15,9.53-19.7,15.74-30.24,18.78-15.59,4.5-26.61,2.3-40.09-5.35-18.21-10.86-21.87-24.83-18.17-44.66-15.77,15.02-32.62,28.86-50.41,41.42-7.92,5.56-17.15,11.35-25.94,15.51-18.69,8.85-54.29,28.5-69.66,4.23-19.85-31.35,9.93-57.21,26.28-80.51,18.35-26.16,37.39-51.96,55.44-78.32,3.44-5.04,13.53-21.57,13.66-26.56.61-47.64-79.44-3.68-96.4,9.06-18.51,13.07-33.59,29.37-46.7,47.83-10.91,15.37-9.6,29.5,12.86,23.14,10.94-3.1,20.34-7.14,29.09-14.95,9.37-8.36,8.56-12.84,8.87-24.64,3.1-2.3,7.34-1.98,10.21.28,11.58,9.1,6.73,24.95-1.44,34.39-14.39,16.64-38.71,27.04-60.19,30.09-8.99.71-21.47-1.32-28.25-7.61-21.14-19.61-11.53-45.87,4.71-64.64,11.04-12.75,20.27-19.08,32.93-28.98,29.89-23.38,63.08-40.89,101.5-43.79Z"/>
    <path class="st3" d="M629.37-984.39c16.8-.3,19.61,9.83,23.6,23.64,19.66,3.29,39.39,5.69,58.68,11.1,7.15,2.01,15.4,4.39,20.38,10.42,3.29,3.97,7.82,10.13,4.33,15.13-4.3,1.85-11.29-8.23-15.82-9.34-24.47-6.03-48.81-10.86-74.12-10.73-9.05,22.99-22.67,51.49-34.85,73.61-17.32,31.46-6.01,35.61,20.32,15.09,10.46-8.16,20.78-35.47,20.84-49.29,50.62-.72,3.18,49.3,7.29,61.06,3,3.33,7.21.58,9.74-2.01,10.43-10.7,21.68-23.01,30.23-35.23,6.74-9.64,16.89-27.57,29.3-11.37,4.19,25.24-9.17,59.28-21.54,81.66-11.96,22.03-33.34,46.43-57.59,54.56-19.22,6.45-42.77-8.03-41.57-29.17.23-4.11,2.64-9.24,6.75-10.31,3.16,1.36,3.85,9.86,5.52,13.01,14.39,27.02,44.38-11.26,54.09-23.31,16.3-20.23,25.16-44.51,33.28-68.66-4.31,5.12-8.15,11.17-12.77,16.82-10.71,12.64-26.87,30.87-43.54,35.16-16.24,4.18-20.9-6.52-23.02-19.37-9.25,6.73-16.03,12.59-27.29,15.69-18.07,3.94-30.29-3.39-29.76-22.67-9.08,8.63-19.14,18.36-32.07,20.21-15.36,2.21-21.08-7.79-22.7-21.26-12.44,11.08-28.02,21.73-45.77,16.14-15.6-5.94-5.23-23.78-3.63-33.19,1.82-10.72,36.84-56.49,4.42-40.85-18.03,8.7-36.8,30.68-42.87,49.41.9,1.45,3.92,6.13,3.86,7.27-.52,9.3-15.81,15.69-23.52,16.05-17.78.83-19.13-12.24-12.62-25.4,2.1-4.24,4.26-9.1,6.55-13.39,6-11.23,13.52-21.35,18.61-32.98,1.03-2.41.53-11.21.42-14.15,7.96-7.03,20.49.67,25.7,7.77,1,1.36,2.12,4.12,2.82,5.73,15.21-9.79,41.79-23.51,57.98-6.53,15.12,15.85-22.3,51.37-14.57,60.58,11.39,5.31,29.89-18.87,35.23-27.13,8-12.4,13.51-17.06,10.2-32.19,11.38-1.41,20.24.22,25.91,10.93-.24,16.21-9.48,24.87-15.1,39.36-1.65,4.25-4.56,11.59,1.68,13.48,1.98.6,4.71.45,6.36-.73,20.54-14.63,50.53-70.18,56.87-92.95-10.98-.45-22.9-.38-33.68,1.96,2.15,2.4,3.48,3.1,2.74,6.41l-1.1.69c-12.42.42-6.21-12.52-12.1-16.07-.72.19-2.36.81-2.17,1.79,7.97,39.2-42.57,21.62-21.27-1.19,16.39-17.55,53.54-11.89,76.34-12.61,1.07-7.22,3.14-15.6,4.98-22.67Z"/>
    <path class="st2" d="M246.37-973.17c2.13-.27,2.47-.29,4.57.1,1.23,1.17,1.75,1.87,2.01,3.6,2.28,14.69-37.62,63.08-47.88,76.53-2.05-8.78-3.09-11.28-7.28-19.17-7.43-12.37-12.52-18.27-27.17-19.45,20.36-19.87,47.16-37.38,75.74-41.61Z"/>
    <path class="st3" d="M243.85-966.36c.48.09.68.3,1.14.58-3.74,13.31-28.27,44.56-37.22,56.36-2.22-3.94-5.32-7.89-8.02-11.56-5.43-6.9-6.85-8.05-14.06-12.94,19.85-15.72,33.69-25.08,58.16-32.44Z"/>
    <path class="st2" d="M414.8-909.91c1.15,3.92-14.58,28.33-17.3,33.31-2.57,4.74-4.86,9.63-6.86,14.64-3.49,8.74-5.09,16.07-1.31,24.85-23.15-7.46-10.51,3.49-19.8,14.52l-.55.64c-1.02.65-1.1.61-2.24,1.06-1.03-1.36-.77-4.58-.71-6.35.92-26.66,30.49-65.4,48.77-82.68Z"/>
    <path class="st2" d="M598.52-924.25h1.1s.21,1.02.21,1.02c-6.76,14.75-18.27,38.91-28.09,51.12l4.15-9.36c4.89-13.84-.36-20.36-10.03-29.86,9.8-1.32,12.41-3.45,17.39-11.8,6.09.15,9.33.01,15.25-1.12Z"/>
    <path class="st3" d="M586.63-918.08l3.76.38.33.65c-1.39,3.24-7.03,14.38-9.27,16.36-1.84-3.82-2.7-5.09-5.23-8.54,4.96-3.01,6.4-4.75,10.41-8.84Z"/>
    <path class="st2" d="M161.3-922.63c1.45,2.48.75,7.57-.41,10.15-4.53,10.07-14.28,14.99-23.86,19.22l-.57-.76c4.66-7.82,18.13-21.81,24.83-28.61Z"/>
    <path class="st2" d="M644.81-896c.08.45.19,1,.11,1.46-2.67,15.31-9.83,28.24-21.35,38.15-.01-1.79,18.88-35.83,21.24-39.61Z"/>
    <path class="st3" d="M631.65-813.35c9.38,7.27,13.2,8.64,24.63,9.53-4.03,4.87-8.81,9.07-13.73,13l-2.79,1.95c-3.77-.37-13.83-14.12-21.07-18.73,5.45-1.58,8.17-2.76,12.96-5.76Z"/>
  </g>
  <text class="st1" transform="translate(750.7 -813.86)"><tspan x="0" y="0">TATTOO</tspan></text>
</svg>